<?xml version="1.0" encoding="UTF-8"?>
<!DOCTYPE svg PUBLIC "-//W3C//DTD SVG 1.1//EN" "http://www.w3.org/Graphics/SVG/1.1/DTD/svg11.dtd">
<svg xmlns="http://www.w3.org/2000/svg" version="1.1" width="600px" height="330px" style="shape-rendering:geometricPrecision; text-rendering:geometricPrecision; image-rendering:optimizeQuality; fill-rule:evenodd; clip-rule:evenodd" xmlns:xlink="http://www.w3.org/1999/xlink">
<g><path style="opacity:0.054" fill="#fef5f0" d="M 215.5,61.5 C 227.655,60.5048 239.989,60.1714 252.5,60.5C 252.784,62.4147 252.451,64.0813 251.5,65.5C 251.5,64.1667 251.5,62.8333 251.5,61.5C 239.5,61.5 227.5,61.5 215.5,61.5 Z"/></g>
<g><path style="opacity:1" fill="#f3742a" d="M 215.5,61.5 C 227.5,61.5 239.5,61.5 251.5,61.5C 251.5,62.8333 251.5,64.1667 251.5,65.5C 244.592,98.7904 236.925,131.79 228.5,164.5C 226.824,165.183 226.157,166.517 226.5,168.5C 222.663,176.315 216.33,180.649 207.5,181.5C 195.5,181.5 183.5,181.5 171.5,181.5C 171.5,180.5 171.5,179.5 171.5,178.5C 178.679,145.115 186.179,111.782 194,78.5C 195.026,75.7613 196.526,73.428 198.5,71.5C 199.906,71.0269 200.573,70.0269 200.5,68.5C 202.027,68.573 203.027,67.9063 203.5,66.5C 206.756,63.2097 210.756,61.543 215.5,61.5 Z M 230.5,101.5 C 231.694,102.272 232.694,103.272 233.5,104.5C 234.254,107.078 234.254,109.744 233.5,112.5C 232.525,115.067 231.858,117.733 231.5,120.5C 229.833,121.5 228.5,122.833 227.5,124.5C 226.508,124.328 225.842,124.662 225.5,125.5C 217.167,125.5 208.833,125.5 200.5,125.5C 200.5,126.833 200.5,128.167 200.5,129.5C 199.388,131.599 198.721,133.933 198.5,136.5C 196.833,137.5 195.5,138.833 194.5,140.5C 192.883,141.038 191.216,141.371 189.5,141.5C 189.5,140.5 189.5,139.5 189.5,138.5C 192.658,127.062 195.324,115.395 197.5,103.5C 208.245,101.558 219.245,100.891 230.5,101.5 Z"/></g>
<g><path style="opacity:0.729" fill="#fdb68f" d="M 203.5,66.5 C 203.027,67.9063 202.027,68.573 200.5,68.5C 200.973,67.0937 201.973,66.427 203.5,66.5 Z"/></g>
<g><path style="opacity:0.722" fill="#febe9a" d="M 200.5,68.5 C 200.573,70.0269 199.906,71.0269 198.5,71.5C 198.427,69.9731 199.094,68.9731 200.5,68.5 Z"/></g>
<g><path style="opacity:0.487" fill="#8db9db" d="M 185.5,89.5 C 185.704,86.4824 186.037,83.4824 186.5,80.5C 172.471,80.2377 158.471,80.571 144.5,81.5C 145.263,80.7321 146.263,80.2321 147.5,80C 161.167,79.3333 174.833,79.3333 188.5,80C 187.68,83.3126 186.68,86.4792 185.5,89.5 Z"/></g>
<g><path style="opacity:0.511" fill="#8dd9a9" d="M 307.5,84.5 C 307.5,83.1667 307.5,81.8333 307.5,80.5C 293.471,80.2377 279.471,80.571 265.5,81.5C 266.263,80.7321 267.263,80.2321 268.5,80C 281.829,79.5001 295.163,79.3334 308.5,79.5C 308.784,81.4147 308.451,83.0813 307.5,84.5 Z"/></g>
<g><path style="opacity:0.004" fill="#fbfefc" d="M 309.5,80.5 C 310.525,80.8966 310.692,81.5632 310,82.5C 309.536,81.9056 309.369,81.2389 309.5,80.5 Z"/></g>
<g><path style="opacity:1" fill="#1f6bb5" d="M 185.5,89.5 C 185.483,91.5648 185.15,93.5648 184.5,95.5C 182.837,97.4385 182.171,99.7718 182.5,102.5C 182.483,104.565 182.15,106.565 181.5,108.5C 179.837,110.438 179.171,112.772 179.5,115.5C 179.483,117.565 179.15,119.565 178.5,121.5C 176.837,123.438 176.171,125.772 176.5,128.5C 176.483,130.565 176.15,132.565 175.5,134.5C 173.837,136.438 173.171,138.772 173.5,141.5C 171.795,152.203 165.795,159.203 155.5,162.5C 142.167,162.5 128.833,162.5 115.5,162.5C 115.5,161.167 115.5,159.833 115.5,158.5C 119.232,139.579 123.566,120.912 128.5,102.5C 129.924,100.485 130.59,98.1522 130.5,95.5C 132.833,88.5 137.5,83.8333 144.5,81.5C 158.471,80.571 172.471,80.2377 186.5,80.5C 186.037,83.4824 185.704,86.4824 185.5,89.5 Z M 168.5,109.5 C 160.097,108.866 152.097,109.533 144.5,111.5C 144.5,111.833 144.5,112.167 144.5,112.5C 143.549,113.919 143.216,115.585 143.5,117.5C 151.5,117.5 159.5,117.5 167.5,117.5C 165.78,121.22 163.113,123.887 159.5,125.5C 153.167,125.5 146.833,125.5 140.5,125.5C 140.5,126.833 140.5,128.167 140.5,129.5C 139.637,133.731 137.637,137.397 134.5,140.5C 132.883,141.038 131.216,141.371 129.5,141.5C 129.5,140.5 129.5,139.5 129.5,138.5C 132.185,128.585 134.685,118.585 137,108.5C 137.833,105 140,102.833 143.5,102C 154.5,101.333 165.5,101.333 176.5,102C 174.568,105.437 171.901,107.937 168.5,109.5 Z"/></g>
<g><path style="opacity:1" fill="#26b352" d="M 307.5,84.5 C 306.833,88.8333 306.167,93.1667 305.5,97.5C 301.364,114.045 297.197,130.712 293,147.5C 289.748,155.59 283.915,160.59 275.5,162.5C 262.5,162.5 249.5,162.5 236.5,162.5C 236.5,161.167 236.5,159.833 236.5,158.5C 237.167,154.167 237.833,149.833 238.5,145.5C 241.913,134.116 244.58,122.449 246.5,110.5C 247.434,109.432 247.768,108.099 247.5,106.5C 248.904,100.144 251.404,94.1436 255,88.5C 257.956,85.2776 261.456,82.9442 265.5,81.5C 279.471,80.571 293.471,80.2377 307.5,80.5C 307.5,81.8333 307.5,83.1667 307.5,84.5 Z M 293.5,104.5 C 293.414,105.496 293.748,106.329 294.5,107C 293.833,107.333 293.167,107.667 292.5,108C 293.416,108.278 294.082,108.778 294.5,109.5C 288.729,108.887 283.396,109.554 278.5,111.5C 278.167,111.5 277.833,111.5 277.5,111.5C 276.501,120.184 274.501,128.518 271.5,136.5C 271.565,136.062 271.399,135.728 271,135.5C 269.833,136.667 268.667,137.833 267.5,139C 267.728,139.399 268.062,139.565 268.5,139.5C 267.71,140.401 266.71,141.068 265.5,141.5C 264.761,141.631 264.094,141.464 263.5,141C 264.598,140.23 264.598,139.397 263.5,138.5C 263.5,138.167 263.5,137.833 263.5,137.5C 264.167,136.167 264.833,134.833 265.5,133.5C 265.5,132.167 265.5,130.833 265.5,129.5C 266.695,125.037 268.028,120.704 269.5,116.5C 269.5,114.833 269.5,113.167 269.5,111.5C 270.043,111.44 270.376,111.107 270.5,110.5C 267.572,109.516 264.572,109.183 261.5,109.5C 260.5,108.833 259.5,108.167 258.5,107.5C 257.596,106.791 257.263,105.791 257.5,104.5C 256.596,103.791 256.263,102.791 256.5,101.5C 267.838,101.333 279.172,101.5 290.5,102C 291.942,102.377 292.942,103.21 293.5,104.5 Z"/></g>
<g><path style="opacity:0.004" fill="#fefcfa" d="M 246.5,92.5 C 247.833,93.1667 247.833,93.1667 246.5,92.5 Z"/></g>
<g><path style="opacity:0.004" fill="#fafdfd" d="M 185.5,94.5 C 186.833,95.1667 186.833,95.1667 185.5,94.5 Z"/></g>
<g><path style="opacity:0.008" fill="#fafefb" d="M 248.5,96.5 C 249.833,97.1667 249.833,97.1667 248.5,96.5 Z"/></g>
<g><path style="opacity:0.004" fill="#fdfefd" d="M 305.5,97.5 C 306.833,98.1667 306.833,98.1667 305.5,97.5 Z"/></g>
<g><path style="opacity:0.584" fill="#a6c5e2" d="M 184.5,95.5 C 184.279,98.0673 183.612,100.401 182.5,102.5C 182.171,99.7718 182.837,97.4385 184.5,95.5 Z"/></g>
<g><path style="opacity:0.148" fill="#fde4d6" d="M 230.5,101.5 C 219.245,100.891 208.245,101.558 197.5,103.5C 197.5,102.5 197.5,101.5 197.5,100.5C 208.679,100.172 219.679,100.505 230.5,101.5 Z"/></g>
<g><path style="opacity:0.004" fill="#fafefb" d="M 247.5,100.5 C 248.833,101.167 248.833,101.167 247.5,100.5 Z"/></g>
<g><path style="opacity:0.682" fill="#7fadd6" d="M 130.5,95.5 C 130.59,98.1522 129.924,100.485 128.5,102.5C 128.41,99.8478 129.076,97.5145 130.5,95.5 Z"/></g>
<g><path style="opacity:0.007" fill="#fdfefd" d="M 247.5,106.5 C 246.402,105.399 246.235,104.066 247,102.5C 247.49,103.793 247.657,105.127 247.5,106.5 Z"/></g>
<g><path style="opacity:0.004" fill="#fefcfa" d="M 243.5,105.5 C 244.833,106.167 244.833,106.167 243.5,105.5 Z"/></g>
<g><path style="opacity:0.675" fill="#97dbaa" d="M 293.5,104.5 C 295.597,105.879 295.93,107.545 294.5,109.5C 294.082,108.778 293.416,108.278 292.5,108C 293.167,107.667 293.833,107.333 294.5,107C 293.748,106.329 293.414,105.496 293.5,104.5 Z"/></g>
<g><path style="opacity:0.009" fill="#fcfefc" d="M 246.5,110.5 C 245.427,109.749 245.26,108.749 246,107.5C 246.483,108.448 246.649,109.448 246.5,110.5 Z"/></g>
<g><path style="opacity:0.497" fill="#8cb9db" d="M 367.5,141.5 C 367.5,130.167 367.5,118.833 367.5,107.5C 366.167,107.5 364.833,107.5 363.5,107.5C 363.5,111.167 363.5,114.833 363.5,118.5C 360.833,118.5 358.167,118.5 355.5,118.5C 357.607,117.532 359.941,117.198 362.5,117.5C 362.5,113.833 362.5,110.167 362.5,106.5C 364.5,106.5 366.5,106.5 368.5,106.5C 368.828,118.345 368.495,130.012 367.5,141.5 Z"/></g>
<g><path style="opacity:0.006" fill="#f9fcfd" d="M 369.5,107.5 C 370.598,108.601 370.765,109.934 370,111.5C 369.51,110.207 369.343,108.873 369.5,107.5 Z"/></g>
<g><path style="opacity:0.999" fill="#3874ba" d="M 367.5,141.5 C 353.328,145.809 346.828,140.475 348,125.5C 349.118,121.544 351.618,119.211 355.5,118.5C 358.167,118.5 360.833,118.5 363.5,118.5C 363.5,114.833 363.5,111.167 363.5,107.5C 364.833,107.5 366.167,107.5 367.5,107.5C 367.5,118.833 367.5,130.167 367.5,141.5 Z M 362.5,122.5 C 362.5,127.5 362.5,132.5 362.5,137.5C 360.5,137.5 358.5,137.5 356.5,137.5C 352.633,132.832 352.633,128.165 356.5,123.5C 358.409,122.652 360.409,122.318 362.5,122.5 Z"/></g>
<g><path style="opacity:0.491" fill="#80b2d8" d="M 168.5,109.5 C 160.599,110.195 152.599,110.862 144.5,111.5C 152.097,109.533 160.097,108.866 168.5,109.5 Z"/></g>
<g><path style="opacity:0.509" fill="#f9be9b" d="M 224.5,113.5 C 224.5,112.5 224.5,111.5 224.5,110.5C 217.745,110.207 211.078,110.54 204.5,111.5C 211.087,109.539 218.087,108.872 225.5,109.5C 225.768,111.099 225.434,112.432 224.5,113.5 Z"/></g>
<g><path style="opacity:0.006" fill="#fffdfb" d="M 242.5,109.5 C 243.525,109.897 243.692,110.563 243,111.5C 242.536,110.906 242.369,110.239 242.5,109.5 Z"/></g>
<g><path style="opacity:0.531" fill="#96dcaf" d="M 261.5,109.5 C 264.572,109.183 267.572,109.516 270.5,110.5C 270.376,111.107 270.043,111.44 269.5,111.5C 266.833,110.833 264.167,110.167 261.5,109.5 Z"/></g>
<g><path style="opacity:0.522" fill="#87d7a5" d="M 294.5,109.5 C 289.268,110.21 283.935,110.877 278.5,111.5C 283.396,109.554 288.729,108.887 294.5,109.5 Z"/></g>
<g><path style="opacity:0.994" fill="#6590c8" d="M 450.5,107.5 C 454.976,107.8 456.31,109.967 454.5,114C 448.339,114.878 447.006,112.711 450.5,107.5 Z"/></g>
<g><path style="opacity:0.596" fill="#a6c5e2" d="M 181.5,108.5 C 181.279,111.067 180.612,113.401 179.5,115.5C 179.171,112.772 179.837,110.438 181.5,108.5 Z"/></g>
<g><path style="opacity:0.498" fill="#fdc2a1" d="M 233.5,104.5 C 234.88,104.962 235.547,105.962 235.5,107.5C 235.199,109.422 234.533,111.088 233.5,112.5C 234.254,109.744 234.254,107.078 233.5,104.5 Z"/></g>
<g><path style="opacity:0.01" fill="#fcfefc" d="M 244.5,111.5 C 245.573,112.251 245.74,113.251 245,114.5C 244.517,113.552 244.351,112.552 244.5,111.5 Z"/></g>
<g><path style="opacity:0.501" fill="#7cafd6" d="M 345.5,114.5 C 345.5,113.167 345.5,111.833 345.5,110.5C 340.167,110.5 334.833,110.5 329.5,110.5C 329.5,120.833 329.5,131.167 329.5,141.5C 334.833,141.5 340.167,141.5 345.5,141.5C 345.5,140.5 345.5,139.5 345.5,138.5C 341.629,138.815 337.962,138.482 334.5,137.5C 338.289,137.324 342.289,137.324 346.5,137.5C 346.5,139.167 346.5,140.833 346.5,142.5C 340.5,142.5 334.5,142.5 328.5,142.5C 328.5,131.5 328.5,120.5 328.5,109.5C 334.5,109.5 340.5,109.5 346.5,109.5C 346.784,111.415 346.451,113.081 345.5,114.5 Z"/></g>
<g><path style="opacity:0.997" fill="#0965b1" d="M 345.5,114.5 C 341.5,114.5 337.5,114.5 333.5,114.5C 333.5,117.5 333.5,120.5 333.5,123.5C 337.167,123.5 340.833,123.5 344.5,123.5C 344.5,124.833 344.5,126.167 344.5,127.5C 340.833,127.5 337.167,127.5 333.5,127.5C 333.187,131.042 333.521,134.375 334.5,137.5C 337.962,138.482 341.629,138.815 345.5,138.5C 345.5,139.5 345.5,140.5 345.5,141.5C 340.167,141.5 334.833,141.5 329.5,141.5C 329.5,131.167 329.5,120.833 329.5,110.5C 334.833,110.5 340.167,110.5 345.5,110.5C 345.5,111.833 345.5,113.167 345.5,114.5 Z"/></g>
<g><path style="opacity:1" fill="#f26f23" d="M 224.5,113.5 C 224.737,114.791 224.404,115.791 223.5,116.5C 217.167,116.5 210.833,116.5 204.5,116.5C 204.5,115.167 204.5,113.833 204.5,112.5C 204.5,112.167 204.5,111.833 204.5,111.5C 211.078,110.54 217.745,110.207 224.5,110.5C 224.5,111.5 224.5,112.5 224.5,113.5 Z"/></g>
<g><path style="opacity:0.005" fill="#f9fcfd" d="M 369.5,113.5 C 370.573,114.251 370.74,115.251 370,116.5C 369.517,115.552 369.351,114.552 369.5,113.5 Z"/></g>
<g><path style="opacity:0.997" fill="#1f69b3" d="M 440.5,111.5 C 441.468,113.607 441.802,115.941 441.5,118.5C 443.167,118.5 444.833,118.5 446.5,118.5C 446.5,119.5 446.5,120.5 446.5,121.5C 444.833,121.5 443.167,121.5 441.5,121.5C 441.179,126.695 441.513,131.695 442.5,136.5C 443.183,138.176 444.517,138.843 446.5,138.5C 446.5,139.833 446.5,141.167 446.5,142.5C 442.671,144.089 439.671,143.089 437.5,139.5C 437.5,133.5 437.5,127.5 437.5,121.5C 436.5,121.5 435.5,121.5 434.5,121.5C 434.5,120.5 434.5,119.5 434.5,118.5C 435.5,118.5 436.5,118.5 437.5,118.5C 437.5,116.5 437.5,114.5 437.5,112.5C 438.791,112.737 439.791,112.404 440.5,111.5 Z"/></g>
<g><path style="opacity:0.004" fill="#fbfefc" d="M 301.5,115.5 C 302.833,116.167 302.833,116.167 301.5,115.5 Z"/></g>
<g><path style="opacity:0.486" fill="#bfd7eb" d="M 345.5,114.5 C 342.038,115.482 338.371,115.815 334.5,115.5C 334.5,117.833 334.5,120.167 334.5,122.5C 338.042,122.187 341.375,122.521 344.5,123.5C 340.833,123.5 337.167,123.5 333.5,123.5C 333.5,120.5 333.5,117.5 333.5,114.5C 337.5,114.5 341.5,114.5 345.5,114.5 Z"/></g>
<g><path style="opacity:0.004" fill="#f7fbfc" d="M 443.5,115.5 C 444.833,116.167 444.833,116.167 443.5,115.5 Z"/></g>
<g><path style="opacity:0.37" fill="#9ac1e0" d="M 144.5,112.5 C 144.5,113.833 144.5,115.167 144.5,116.5C 152.352,116.175 160.018,116.508 167.5,117.5C 159.5,117.5 151.5,117.5 143.5,117.5C 143.216,115.585 143.549,113.919 144.5,112.5 Z"/></g>
<g><path style="opacity:0.261" fill="#fcd4bd" d="M 204.5,112.5 C 204.5,113.833 204.5,115.167 204.5,116.5C 210.833,116.5 217.167,116.5 223.5,116.5C 217.021,117.491 210.354,117.824 203.5,117.5C 203.216,115.585 203.549,113.919 204.5,112.5 Z"/></g>
<g><path style="opacity:0.007" fill="#f9fcfd" d="M 335.5,116.5 C 336.598,117.601 336.765,118.934 336,120.5C 335.51,119.207 335.343,117.873 335.5,116.5 Z"/></g>
<g><path style="opacity:0.007" fill="#f5fafb" d="M 369.5,118.5 C 370.652,123.985 370.818,129.651 370,135.5C 369.501,129.843 369.334,124.176 369.5,118.5 Z"/></g>
<g><path style="opacity:0.382" fill="#9bc2e0" d="M 377.5,135.5 C 376.511,130.025 376.178,124.358 376.5,118.5C 375.167,118.5 373.833,118.5 372.5,118.5C 372.5,124.833 372.5,131.167 372.5,137.5C 371.509,131.021 371.176,124.354 371.5,117.5C 373.5,117.5 375.5,117.5 377.5,117.5C 377.5,123.5 377.5,129.5 377.5,135.5 Z"/></g>
<g><path style="opacity:0.998" fill="#306fb7" d="M 377.5,135.5 C 377.611,136.117 377.944,136.617 378.5,137C 380.81,137.497 383.143,137.663 385.5,137.5C 386.49,131.355 386.823,125.022 386.5,118.5C 387.833,118.5 389.167,118.5 390.5,118.5C 390.5,126.167 390.5,133.833 390.5,141.5C 385.692,143.883 380.692,144.05 375.5,142C 373.859,140.871 372.859,139.371 372.5,137.5C 372.5,131.167 372.5,124.833 372.5,118.5C 373.833,118.5 375.167,118.5 376.5,118.5C 376.178,124.358 376.511,130.025 377.5,135.5 Z"/></g>
<g><path style="opacity:0.391" fill="#99c1e0" d="M 390.5,141.5 C 390.5,133.833 390.5,126.167 390.5,118.5C 389.167,118.5 387.833,118.5 386.5,118.5C 386.823,125.022 386.49,131.355 385.5,137.5C 385.5,130.833 385.5,124.167 385.5,117.5C 387.5,117.5 389.5,117.5 391.5,117.5C 391.826,125.684 391.492,133.684 390.5,141.5 Z"/></g>
<g><path style="opacity:0.998" fill="#497ebf" d="M 410.5,121.5 C 409.609,122.11 408.609,122.443 407.5,122.5C 402.152,122.012 399.485,124.512 399.5,130C 399.978,132.78 400.978,135.28 402.5,137.5C 405.053,138.255 407.72,138.922 410.5,139.5C 411.774,140.189 411.774,141.023 410.5,142C 399.816,145.156 394.15,141.156 393.5,130C 394.86,118.488 400.86,114.988 411.5,119.5C 411.137,120.183 410.804,120.85 410.5,121.5 Z"/></g>
<g><path style="opacity:0.999" fill="#4e82c1" d="M 414.5,122.5 C 414.433,121.041 414.766,119.708 415.5,118.5C 417.304,117.838 419.304,117.505 421.5,117.5C 430.613,117.663 433.946,122.33 431.5,131.5C 431.482,135.084 431.148,138.584 430.5,142C 425.484,143.921 420.484,143.921 415.5,142C 409.938,136.837 410.271,132.171 416.5,128C 419.753,126.964 423.086,126.297 426.5,126C 425.663,124.989 425.33,123.822 425.5,122.5C 421.584,122.704 417.918,122.704 414.5,122.5 Z M 424.5,130.5 C 425.239,130.369 425.906,130.536 426.5,131C 425.565,133.381 425.232,135.881 425.5,138.5C 421.93,139.107 419.263,137.94 417.5,135C 417.759,133.739 418.426,132.739 419.5,132C 421.382,131.802 423.048,131.302 424.5,130.5 Z"/></g>
<g><path style="opacity:0.987" fill="#668fc8" d="M 449.5,117.5 C 451.467,117.261 453.301,117.594 455,118.5C 455.5,126.493 455.666,134.493 455.5,142.5C 453.167,142.5 450.833,142.5 448.5,142.5C 448.198,134.082 448.531,125.748 449.5,117.5 Z"/></g>
<g><path style="opacity:0.997" fill="#4b80c0" d="M 479.5,125.5 C 480.292,131.279 478.959,136.446 475.5,141C 464.549,145.522 458.549,141.856 457.5,130C 457.708,120.058 462.708,116.058 472.5,118C 475.772,119.767 478.105,122.267 479.5,125.5 Z M 465.5,122.5 C 469.757,121.597 472.257,123.264 473,127.5C 473.584,130.257 473.25,132.923 472,135.5C 470.23,137.418 468.063,137.918 465.5,137C 462.87,132.168 462.87,127.334 465.5,122.5 Z"/></g>
<g><path style="opacity:0.501" fill="#81b3d8" d="M 483.5,118.5 C 482.534,126.08 482.201,133.747 482.5,141.5C 483.833,141.5 485.167,141.5 486.5,141.5C 486.177,134.978 486.51,128.645 487.5,122.5C 487.5,129.167 487.5,135.833 487.5,142.5C 485.5,142.5 483.5,142.5 481.5,142.5C 480.866,134.097 481.533,126.097 483.5,118.5 Z"/></g>
<g><path style="opacity:0.999" fill="#1f6ab4" d="M 500.5,121.5 C 500.5,128.167 500.5,134.833 500.5,141.5C 499.167,141.5 497.833,141.5 496.5,141.5C 496.823,135.31 496.49,129.31 495.5,123.5C 492.946,122.612 490.279,122.279 487.5,122.5C 486.51,128.645 486.177,134.978 486.5,141.5C 485.167,141.5 483.833,141.5 482.5,141.5C 482.201,133.747 482.534,126.08 483.5,118.5C 487.747,117.398 492.08,117.232 496.5,118C 498.324,118.66 499.657,119.827 500.5,121.5 Z"/></g>
<g><path style="opacity:0.01" fill="#fcfefc" d="M 242.5,120.5 C 243.525,120.897 243.692,121.563 243,122.5C 242.536,121.906 242.369,121.239 242.5,120.5 Z"/></g>
<g><path style="opacity:0.827" fill="#feba94" d="M 231.5,120.5 C 231.167,122.833 229.833,124.167 227.5,124.5C 228.5,122.833 229.833,121.5 231.5,120.5 Z"/></g>
<g><path style="opacity:0.012" fill="#c3d8ec" d="M 415.5,118.5 C 414.766,119.708 414.433,121.041 414.5,122.5C 413.876,122.083 413.543,121.416 413.5,120.5C 413.747,119.287 414.414,118.62 415.5,118.5 Z"/></g>
<g><path style="opacity:0.004" fill="#e3eef6" d="M 410.5,121.5 C 409.947,123.552 408.947,123.885 407.5,122.5C 408.609,122.443 409.609,122.11 410.5,121.5 Z"/></g>
<g><path style="opacity:0.38" fill="#abcbe5" d="M 362.5,122.5 C 363.488,127.64 363.821,132.974 363.5,138.5C 360.941,138.802 358.607,138.468 356.5,137.5C 358.5,137.5 360.5,137.5 362.5,137.5C 362.5,132.5 362.5,127.5 362.5,122.5 Z"/></g>
<g><path style="opacity:0.479" fill="#85b4d9" d="M 440.5,111.5 C 439.791,112.404 438.791,112.737 437.5,112.5C 437.5,114.5 437.5,116.5 437.5,118.5C 436.5,118.5 435.5,118.5 434.5,118.5C 434.5,119.5 434.5,120.5 434.5,121.5C 435.5,121.5 436.5,121.5 437.5,121.5C 437.5,127.5 437.5,133.5 437.5,139.5C 436.511,134.025 436.178,128.358 436.5,122.5C 435.5,122.5 434.5,122.5 433.5,122.5C 433.5,120.833 433.5,119.167 433.5,117.5C 434.5,117.5 435.5,117.5 436.5,117.5C 436.5,115.5 436.5,113.5 436.5,111.5C 437.833,111.5 439.167,111.5 440.5,111.5 Z"/></g>
<g><path style="opacity:0.012" fill="#f7fafc" d="M 479.5,125.5 C 479.369,124.761 479.536,124.094 480,123.5C 480.692,124.437 480.525,125.103 479.5,125.5 Z"/></g>
<g><path style="opacity:0.004" fill="#f5f9fc" d="M 488.5,123.5 C 489.833,124.167 489.833,124.167 488.5,123.5 Z"/></g>
<g><path style="opacity:0.007" fill="#fbfcfe" d="M 493.5,124.5 C 492.448,124.649 491.448,124.483 490.5,124C 491.749,123.26 492.749,123.427 493.5,124.5 Z"/></g>
<g><path style="opacity:0.576" fill="#a6c5e2" d="M 178.5,121.5 C 178.279,124.067 177.612,126.401 176.5,128.5C 176.171,125.772 176.837,123.438 178.5,121.5 Z"/></g>
<g><path style="opacity:0.386" fill="#9fc4e1" d="M 440.5,111.5 C 440.56,110.957 440.893,110.624 441.5,110.5C 442.474,112.743 442.808,115.076 442.5,117.5C 444.167,117.5 445.833,117.5 447.5,117.5C 447.5,119.167 447.5,120.833 447.5,122.5C 445.833,122.5 444.167,122.5 442.5,122.5C 442.5,127.167 442.5,131.833 442.5,136.5C 441.513,131.695 441.179,126.695 441.5,121.5C 443.167,121.5 444.833,121.5 446.5,121.5C 446.5,120.5 446.5,119.5 446.5,118.5C 444.833,118.5 443.167,118.5 441.5,118.5C 441.802,115.941 441.468,113.607 440.5,111.5 Z"/></g>
<g><path style="opacity:0.007" fill="#fbfcfe" d="M 493.5,124.5 C 494.653,130.319 494.819,136.319 494,142.5C 493.501,136.509 493.334,130.509 493.5,124.5 Z"/></g>
<g><path style="opacity:0.388" fill="#9ac2e0" d="M 159.5,125.5 C 153.69,126.49 147.69,126.823 141.5,126.5C 141.737,127.791 141.404,128.791 140.5,129.5C 140.5,128.167 140.5,126.833 140.5,125.5C 146.833,125.5 153.167,125.5 159.5,125.5 Z"/></g>
<g><path style="opacity:0.401" fill="#fac5a7" d="M 225.5,125.5 C 217.684,126.492 209.684,126.826 201.5,126.5C 201.737,127.791 201.404,128.791 200.5,129.5C 200.5,128.167 200.5,126.833 200.5,125.5C 208.833,125.5 217.167,125.5 225.5,125.5 Z"/></g>
<g><path style="opacity:0.004" fill="#fafcfd" d="M 401.5,125.5 C 402.833,126.167 402.833,126.167 401.5,125.5 Z"/></g>
<g><path style="opacity:0.719" fill="#75a8d3" d="M 500.5,121.5 C 501.491,128.313 501.825,135.313 501.5,142.5C 499.5,142.5 497.5,142.5 495.5,142.5C 495.5,136.167 495.5,129.833 495.5,123.5C 496.49,129.31 496.823,135.31 496.5,141.5C 497.833,141.5 499.167,141.5 500.5,141.5C 500.5,134.833 500.5,128.167 500.5,121.5 Z"/></g>
<g><path style="opacity:0.004" fill="#fefdfb" d="M 238.5,126.5 C 239.525,126.897 239.692,127.563 239,128.5C 238.536,127.906 238.369,127.239 238.5,126.5 Z"/></g>
<g><path style="opacity:0.004" fill="#fbfefc" d="M 241.5,126.5 C 242.833,127.167 242.833,127.167 241.5,126.5 Z"/></g>
<g><path style="opacity:0.379" fill="#99c1e0" d="M 344.5,123.5 C 345.451,124.919 345.784,126.585 345.5,128.5C 341.833,128.5 338.167,128.5 334.5,128.5C 334.5,131.5 334.5,134.5 334.5,137.5C 333.521,134.375 333.187,131.042 333.5,127.5C 337.167,127.5 340.833,127.5 344.5,127.5C 344.5,126.167 344.5,124.833 344.5,123.5 Z"/></g>
<g><path style="opacity:0.008" fill="#fcfefc" d="M 240.5,128.5 C 241.573,129.251 241.74,130.251 241,131.5C 240.517,130.552 240.351,129.552 240.5,128.5 Z"/></g>
<g><path style="opacity:0.004" fill="#f9fcfd" d="M 177.5,129.5 C 178.833,130.167 178.833,130.167 177.5,129.5 Z"/></g>
<g><path style="opacity:0.013" fill="#f9fbfd" d="M 335.5,129.5 C 336.613,130.946 336.78,132.613 336,134.5C 335.506,132.866 335.34,131.199 335.5,129.5 Z"/></g>
<g><path style="opacity:1" fill="#7fd091" d="M 265.5,129.5 C 265.5,130.833 265.5,132.167 265.5,133.5C 264.833,134.833 264.167,136.167 263.5,137.5C 263.643,135.738 263.309,134.071 262.5,132.5C 263.548,131.452 264.548,130.452 265.5,129.5 Z"/></g>
<g><path style="opacity:0.012" fill="#f5f9fb" d="M 479.5,135.5 C 480.833,136.167 480.833,136.167 479.5,135.5 Z"/></g>
<g><path style="opacity:0.596" fill="#a6c5e2" d="M 175.5,134.5 C 175.279,137.067 174.612,139.401 173.5,141.5C 173.171,138.772 173.837,136.438 175.5,134.5 Z"/></g>
<g><path style="opacity:0.773" fill="#fdac7f" d="M 198.5,136.5 C 198.167,138.833 196.833,140.167 194.5,140.5C 195.5,138.833 196.833,137.5 198.5,136.5 Z"/></g>
<g><path style="opacity:0.01" fill="#fbfefc" d="M 238.5,138.5 C 239.525,138.897 239.692,139.563 239,140.5C 238.536,139.906 238.369,139.239 238.5,138.5 Z"/></g>
<g><path style="opacity:0.459" fill="#a3c4e1" d="M 410.5,139.5 C 407.72,138.922 405.053,138.255 402.5,137.5C 404.792,137.756 406.959,137.423 409,136.5C 410.039,137.244 410.539,138.244 410.5,139.5 Z"/></g>
<g><path style="opacity:0.192" fill="#bbd4e9" d="M 442.5,136.5 C 444.042,137.301 445.708,137.634 447.5,137.5C 447.784,139.415 447.451,141.081 446.5,142.5C 446.5,141.167 446.5,139.833 446.5,138.5C 444.517,138.843 443.183,138.176 442.5,136.5 Z"/></g>
<g><path style="opacity:0.005" fill="#fffdfc" d="M 235.5,139.5 C 236.573,140.251 236.74,141.251 236,142.5C 235.517,141.552 235.351,140.552 235.5,139.5 Z"/></g>
<g><path style="opacity:0.004" fill="#fbfcfe" d="M 369.5,139.5 C 370.525,139.897 370.692,140.563 370,141.5C 369.536,140.906 369.369,140.239 369.5,139.5 Z"/></g>
<g><path style="opacity:0.98" fill="#76a4d2" d="M 129.5,138.5 C 129.5,139.5 129.5,140.5 129.5,141.5C 131.216,141.371 132.883,141.038 134.5,140.5C 133.01,142.28 131.01,142.946 128.5,142.5C 128.232,140.901 128.566,139.568 129.5,138.5 Z"/></g>
<g><path style="opacity:0.953" fill="#fbab7e" d="M 189.5,138.5 C 189.5,139.5 189.5,140.5 189.5,141.5C 191.216,141.371 192.883,141.038 194.5,140.5C 193.01,142.28 191.01,142.946 188.5,142.5C 188.232,140.901 188.566,139.568 189.5,138.5 Z"/></g>
<g><path style="opacity:0.296" fill="#b8e8c9" d="M 263.5,138.5 C 264.598,139.397 264.598,140.23 263.5,141C 264.094,141.464 264.761,141.631 265.5,141.5C 264.791,142.404 263.791,142.737 262.5,142.5C 262.232,140.901 262.566,139.568 263.5,138.5 Z"/></g>
<g><path style="opacity:0.008" fill="#fefcfa" d="M 234.5,144.5 C 235.833,145.167 235.833,145.167 234.5,144.5 Z"/></g>
<g><path style="opacity:0.004" fill="#fdfefd" d="M 238.5,145.5 C 237.833,144.167 237.833,144.167 238.5,145.5 Z"/></g>
<g><path style="opacity:0.007" fill="#fcfefc" d="M 237.5,145.5 C 237.649,146.552 237.483,147.552 237,148.5C 236.26,147.251 236.427,146.251 237.5,145.5 Z"/></g>
<g><path style="opacity:0.008" fill="#fbfdfd" d="M 302.5,147.5 C 302.897,146.475 303.563,146.308 304.5,147C 303.906,147.464 303.239,147.631 302.5,147.5 Z"/></g>
<g><path style="opacity:0.008" fill="#fcfdfe" d="M 307.5,147.5 C 307.897,146.475 308.563,146.308 309.5,147C 308.906,147.464 308.239,147.631 307.5,147.5 Z"/></g>
<g><path style="opacity:0.004" fill="#fdfefe" d="M 302.5,147.5 C 302.5,147.833 302.5,148.167 302.5,148.5C 299.833,148.167 299.833,147.833 302.5,147.5 Z"/></g>
<g><path style="opacity:0.729" fill="#75a2d1" d="M 312.5,152.5 C 311.604,151.494 310.938,151.494 310.5,152.5C 309.167,152.833 309.167,153.167 310.5,153.5C 311.833,155.167 311.833,156.833 310.5,158.5C 310.66,153.921 309.993,153.588 308.5,157.5C 308.5,157.833 308.5,158.167 308.5,158.5C 307.596,157.791 307.263,156.791 307.5,155.5C 306.5,155.5 305.5,155.5 304.5,155.5C 304.737,154.209 304.404,153.209 303.5,152.5C 303.167,151.167 302.833,151.167 302.5,152.5C 302.167,152.5 301.833,152.5 301.5,152.5C 301.062,151.494 300.396,151.494 299.5,152.5C 299.771,150.57 300.771,149.236 302.5,148.5C 305.562,147.549 308.562,148.049 311.5,150C 312.252,150.671 312.586,151.504 312.5,152.5 Z M 310.5,158.5 C 309.833,158.167 309.167,157.833 308.5,157.5C 309.993,153.588 310.66,153.921 310.5,158.5 Z"/></g>
<g><path style="opacity:0.004" fill="#fcfefe" d="M 298.5,152.5 C 297.833,151.167 297.833,151.167 298.5,152.5 Z"/></g>
<g><path style="opacity:0.008" fill="#fbfcfe" d="M 297.5,152.5 C 297.662,154.527 297.495,156.527 297,158.5C 296.211,156.288 296.378,154.288 297.5,152.5 Z"/></g>
<g><path style="opacity:0.004" fill="#fafefb" d="M 234.5,156.5 C 235.833,157.167 235.833,157.167 234.5,156.5 Z"/></g>
<g><path style="opacity:1" fill="#608ec7" d="M 301.5,152.5 C 301.5,154.5 301.5,156.5 301.5,158.5C 304.5,162.5 307.5,162.5 310.5,158.5C 311.833,156.833 311.833,155.167 310.5,153.5C 310.5,153.167 310.5,152.833 310.5,152.5C 310.938,151.494 311.604,151.494 312.5,152.5C 313.468,154.607 313.802,156.941 313.5,159.5C 304.172,166.544 299.172,164.21 298.5,152.5C 298.833,152.5 299.167,152.5 299.5,152.5C 300.396,151.494 301.062,151.494 301.5,152.5 Z M 310.5,158.5 C 309.833,158.167 309.167,157.833 308.5,157.5C 309.993,153.588 310.66,153.921 310.5,158.5 Z M 306.5,157.5 C 306.328,158.492 306.662,159.158 307.5,159.5C 306.698,160.885 306.031,160.718 305.5,159C 305.57,158.235 305.903,157.735 306.5,157.5 Z"/></g>
<g><path style="opacity:1" fill="#2669b3" d="M 303.5,152.5 C 304.404,153.209 304.737,154.209 304.5,155.5C 305.5,155.5 306.5,155.5 307.5,155.5C 307.263,156.791 307.596,157.791 308.5,158.5C 308.5,159.167 308.167,159.5 307.5,159.5C 306.662,159.158 306.328,158.492 306.5,157.5C 306.44,156.957 306.107,156.624 305.5,156.5C 304.749,157.376 304.249,158.376 304,159.5C 303.503,157.19 303.337,154.857 303.5,152.5 Z"/></g>
<g><path style="opacity:0.112" fill="#c0d9eb" d="M 303.5,152.5 C 303.337,154.857 303.503,157.19 304,159.5C 304.249,158.376 304.749,157.376 305.5,156.5C 306.107,156.624 306.44,156.957 306.5,157.5C 305.903,157.735 305.57,158.235 305.5,159C 306.031,160.718 306.698,160.885 307.5,159.5C 308.167,159.5 308.5,159.167 308.5,158.5C 308.5,158.167 308.5,157.833 308.5,157.5C 309.167,157.833 309.833,158.167 310.5,158.5C 307.5,162.5 304.5,162.5 301.5,158.5C 302.461,156.735 302.795,154.735 302.5,152.5C 302.833,151.167 303.167,151.167 303.5,152.5 Z M 306.5,157.5 C 306.328,158.492 306.662,159.158 307.5,159.5C 306.698,160.885 306.031,160.718 305.5,159C 305.57,158.235 305.903,157.735 306.5,157.5 Z"/></g>
<g><path style="opacity:0.004" fill="#fbfdfd" d="M 313.5,159.5 C 314.833,160.167 314.833,160.167 313.5,159.5 Z"/></g>
<g><path style="opacity:0.49" fill="#8bb8db" d="M 115.5,158.5 C 115.5,159.833 115.5,161.167 115.5,162.5C 128.833,162.5 142.167,162.5 155.5,162.5C 142.01,163.496 128.344,163.829 114.5,163.5C 114.216,161.585 114.549,159.919 115.5,158.5 Z"/></g>
<g><path style="opacity:0.502" fill="#8fdaab" d="M 236.5,158.5 C 236.5,159.833 236.5,161.167 236.5,162.5C 249.5,162.5 262.5,162.5 275.5,162.5C 275.5,162.833 275.5,163.167 275.5,163.5C 262.167,163.5 248.833,163.5 235.5,163.5C 235.216,161.585 235.549,159.919 236.5,158.5 Z"/></g>
<g><path style="opacity:0.008" fill="#fbfefc" d="M 275.5,163.5 C 276.833,164.167 276.833,164.167 275.5,163.5 Z"/></g>
<g><path style="opacity:1" fill="#fc9f6c" d="M 228.5,164.5 C 228.771,166.38 228.104,167.713 226.5,168.5C 226.157,166.517 226.824,165.183 228.5,164.5 Z"/></g>
<g><path style="opacity:0.022" fill="#fef9f6" d="M 171.5,178.5 C 171.5,179.5 171.5,180.5 171.5,181.5C 183.5,181.5 195.5,181.5 207.5,181.5C 195.345,182.495 183.011,182.829 170.5,182.5C 170.232,180.901 170.566,179.568 171.5,178.5 Z"/></g>
<g><path style="opacity:0.29" fill="#fed4bc" d="M 449.5,225.5 C 445.007,225.269 440.674,225.936 436.5,227.5C 437.347,226.034 438.68,225.2 440.5,225C 443.696,224.195 446.696,224.362 449.5,225.5 Z"/></g>
<g><path style="opacity:0.398" fill="#faccb1" d="M 77.5,242.5 C 77.5,237.167 77.5,231.833 77.5,226.5C 64.5,226.5 51.5,226.5 38.5,226.5C 38.5,229.5 38.5,232.5 38.5,235.5C 37.5206,232.375 37.1872,229.042 37.5,225.5C 51.1667,225.5 64.8333,225.5 78.5,225.5C 78.8222,231.358 78.4889,237.025 77.5,242.5 Z"/></g>
<g><path style="opacity:0.398" fill="#facdb3" d="M 108.5,226.5 C 99.1667,226.5 89.8333,226.5 80.5,226.5C 80.5,229.5 80.5,232.5 80.5,235.5C 79.5206,232.375 79.1872,229.042 79.5,225.5C 89.3478,225.173 99.0144,225.506 108.5,226.5 Z"/></g>
<g><path style="opacity:0.02" fill="#fefbfa" d="M 120.5,225.5 C 120.5,225.833 120.5,226.167 120.5,226.5C 120.5,231.833 120.5,237.167 120.5,242.5C 119.833,242.833 119.167,243.167 118.5,243.5C 118.5,241.5 118.5,239.5 118.5,237.5C 119.167,233.5 119.833,229.5 120.5,225.5 Z"/></g>
<g><path style="opacity:0.394" fill="#fccdb3" d="M 193.5,235.5 C 194.568,234.566 195.901,234.232 197.5,234.5C 197.5,231.833 197.5,229.167 197.5,226.5C 190.833,226.5 184.167,226.5 177.5,226.5C 177.5,229.167 177.5,231.833 177.5,234.5C 178.833,234.5 180.167,234.5 181.5,234.5C 181.5,242.5 181.5,250.5 181.5,258.5C 180.508,251.018 180.175,243.352 180.5,235.5C 179.167,235.5 177.833,235.5 176.5,235.5C 176.5,232.167 176.5,228.833 176.5,225.5C 183.833,225.5 191.167,225.5 198.5,225.5C 198.5,228.833 198.5,232.167 198.5,235.5C 196.833,235.5 195.167,235.5 193.5,235.5 Z"/></g>
<g><path style="opacity:0.397" fill="#fcd4bd" d="M 223.5,226.5 C 216.5,226.5 209.5,226.5 202.5,226.5C 202.5,229.5 202.5,232.5 202.5,235.5C 201.521,232.375 201.187,229.042 201.5,225.5C 209.019,225.175 216.352,225.508 223.5,226.5 Z"/></g>
<g><path style="opacity:0.398" fill="#fac9ac" d="M 225.5,226.5 C 225.5,226.167 225.5,225.833 225.5,225.5C 231.598,224.883 237.265,225.55 242.5,227.5C 236.925,226.548 231.259,226.214 225.5,226.5 Z"/></g>
<g><path style="opacity:0.398" fill="#facbb0" d="M 271.5,235.5 C 271.5,232.5 271.5,229.5 271.5,226.5C 264.833,226.5 258.167,226.5 251.5,226.5C 251.5,229.5 251.5,232.5 251.5,235.5C 250.521,232.375 250.187,229.042 250.5,225.5C 257.833,225.5 265.167,225.5 272.5,225.5C 272.813,229.042 272.479,232.375 271.5,235.5 Z"/></g>
<g><path style="opacity:0.397" fill="#faccb1" d="M 273.5,226.5 C 280.648,225.508 287.981,225.175 295.5,225.5C 295.813,229.042 295.479,232.375 294.5,235.5C 294.5,232.5 294.5,229.5 294.5,226.5C 287.5,226.5 280.5,226.5 273.5,226.5 Z"/></g>
<g><path style="opacity:0.398" fill="#fcd4bc" d="M 296.5,226.5 C 302.979,225.509 309.646,225.176 316.5,225.5C 316.813,229.042 316.479,232.375 315.5,235.5C 315.5,232.5 315.5,229.5 315.5,226.5C 309.167,226.5 302.833,226.5 296.5,226.5 Z"/></g>
<g><path style="opacity:0.395" fill="#fac5a7" d="M 338.5,235.5 C 338.5,232.5 338.5,229.5 338.5,226.5C 332.5,226.5 326.5,226.5 320.5,226.5C 320.5,229.167 320.5,231.833 320.5,234.5C 321.978,234.238 323.311,234.571 324.5,235.5C 324.376,236.107 324.043,236.44 323.5,236.5C 322.432,235.566 321.099,235.232 319.5,235.5C 319.5,232.167 319.5,228.833 319.5,225.5C 326.167,225.5 332.833,225.5 339.5,225.5C 339.813,229.042 339.479,232.375 338.5,235.5 Z"/></g>
<g><path style="opacity:0.398" fill="#facaad" d="M 416.5,226.5 C 406.167,226.5 395.833,226.5 385.5,226.5C 385.5,229.5 385.5,232.5 385.5,235.5C 384.521,232.375 384.187,229.042 384.5,225.5C 395.346,225.172 406.013,225.506 416.5,226.5 Z"/></g>
<g><path style="opacity:1" fill="#f47832" d="M 449.5,225.5 C 451.153,225.66 452.486,226.326 453.5,227.5C 454.988,230.186 455.655,229.853 455.5,226.5C 458.5,226.5 461.5,226.5 464.5,226.5C 464.5,230.833 464.5,235.167 464.5,239.5C 460.766,239.677 457.099,239.344 453.5,238.5C 451.358,234.929 448.358,233.929 444.5,235.5C 443.253,237.006 443.253,238.506 444.5,240C 452.486,240.946 459.653,243.779 466,248.5C 470.583,257.651 468.75,265.151 460.5,271C 459.552,271.483 458.552,271.649 457.5,271.5C 453.131,271.533 448.798,271.2 444.5,270.5C 443.609,269.89 442.609,269.557 441.5,269.5C 441.5,269.167 441.5,268.833 441.5,268.5C 441.217,267.711 440.717,267.044 440,266.5C 439.51,267.793 439.343,269.127 439.5,270.5C 436.5,270.5 433.5,270.5 430.5,270.5C 430.5,265.5 430.5,260.5 430.5,255.5C 434.182,255.335 437.848,255.501 441.5,256C 443.396,258.068 445.396,259.901 447.5,261.5C 449.948,262.473 452.615,262.806 455.5,262.5C 455.795,260.265 455.461,258.265 454.5,256.5C 449.589,255.123 444.589,253.957 439.5,253C 429.221,248.212 426.721,240.712 432,230.5C 433.129,228.859 434.629,227.859 436.5,227.5C 440.674,225.936 445.007,225.269 449.5,225.5 Z"/></g>
<g><path style="opacity:0.393" fill="#fbcfb5" d="M 465.5,226.5 C 465.167,226.5 464.833,226.5 464.5,226.5C 461.5,226.5 458.5,226.5 455.5,226.5C 455.655,229.853 454.988,230.186 453.5,227.5C 455.384,226.325 457.551,225.658 460,225.5C 462.033,225.506 463.866,225.839 465.5,226.5 Z"/></g>
<g><path style="opacity:0.395" fill="#faccb1" d="M 492.5,226.5 C 485.5,226.5 478.5,226.5 471.5,226.5C 471.5,229.5 471.5,232.5 471.5,235.5C 470.521,232.375 470.187,229.042 470.5,225.5C 478.019,225.175 485.352,225.508 492.5,226.5 Z"/></g>
<g><path style="opacity:0.395" fill="#fcccb0" d="M 551.5,237.5 C 550.596,236.791 550.263,235.791 550.5,234.5C 551.5,234.5 552.5,234.5 553.5,234.5C 553.5,231.833 553.5,229.167 553.5,226.5C 547.167,226.5 540.833,226.5 534.5,226.5C 534.5,229.167 534.5,231.833 534.5,234.5C 535.791,234.263 536.791,234.596 537.5,235.5C 536.167,235.5 534.833,235.5 533.5,235.5C 533.802,238.059 533.468,240.393 532.5,242.5C 532.5,242.167 532.5,241.833 532.5,241.5C 532.5,239.167 532.5,236.833 532.5,234.5C 533.833,232.167 533.833,229.833 532.5,227.5C 532.5,227.167 532.5,226.833 532.5,226.5C 539.746,225.536 547.08,225.203 554.5,225.5C 554.5,228.833 554.5,232.167 554.5,235.5C 552.821,235.285 551.821,235.952 551.5,237.5 Z"/></g>
<g><path style="opacity:0.391" fill="#fbd5be" d="M 578.5,235.5 C 578.5,232.5 578.5,229.5 578.5,226.5C 572.167,226.5 565.833,226.5 559.5,226.5C 559.5,229.5 559.5,232.5 559.5,235.5C 558.521,232.375 558.187,229.042 558.5,225.5C 565.5,225.5 572.5,225.5 579.5,225.5C 579.813,229.042 579.479,232.375 578.5,235.5 Z"/></g>
<g><path style="opacity:1" fill="#f3742b" d="M 108.5,226.5 C 112.805,227.153 115.805,229.486 117.5,233.5C 117.666,237.514 117.499,241.514 117,245.5C 116.667,242.167 116.333,238.833 116,235.5C 115.565,240.184 115.065,244.851 114.5,249.5C 113.5,249.5 112.5,249.5 111.5,249.5C 111.567,250.959 111.234,252.292 110.5,253.5C 109.432,254.434 108.099,254.768 106.5,254.5C 103.167,254.5 99.8333,254.5 96.5,254.5C 96.5,256.833 96.5,259.167 96.5,261.5C 97.5676,262.434 98.901,262.768 100.5,262.5C 100.5,265.167 100.5,267.833 100.5,270.5C 93.8333,270.5 87.1667,270.5 80.5,270.5C 80.5,267.833 80.5,265.167 80.5,262.5C 82.099,262.768 83.4324,262.434 84.5,261.5C 85.8333,252.833 85.8333,244.167 84.5,235.5C 83.1667,235.5 81.8333,235.5 80.5,235.5C 80.5,232.5 80.5,229.5 80.5,226.5C 89.8333,226.5 99.1667,226.5 108.5,226.5 Z M 105.5,243.5 C 104.29,243.932 103.29,244.599 102.5,245.5C 100.473,245.662 98.4727,245.495 96.5,245C 97.4505,241.943 97.7839,238.777 97.5,235.5C 103.82,234.687 106.487,237.354 105.5,243.5 Z"/></g>
<g><path style="opacity:0.053" fill="#fde3d5" d="M 120.5,226.5 C 120.5,226.167 120.5,225.833 120.5,225.5C 133.5,225.5 146.5,225.5 159.5,225.5C 159.822,231.358 159.489,237.025 158.5,242.5C 158.5,237.167 158.5,231.833 158.5,226.5C 145.833,226.5 133.167,226.5 120.5,226.5 Z"/></g>
<g><path style="opacity:0.004" fill="#fefcfa" d="M 174.5,226.5 C 175.613,227.946 175.78,229.613 175,231.5C 174.506,229.866 174.34,228.199 174.5,226.5 Z"/></g>
<g><path style="opacity:0.133" fill="#fdf0e8" d="M 225.5,225.5 C 225.5,225.833 225.5,226.167 225.5,226.5C 225.5,229.167 225.5,231.833 225.5,234.5C 225.5,234.833 225.5,235.167 225.5,235.5C 224.833,235.5 224.167,235.5 223.5,235.5C 223.5,232.5 223.5,229.5 223.5,226.5C 224.167,226.167 224.833,225.833 225.5,225.5 Z"/></g>
<g><path style="opacity:0.014" fill="#fefbf7" d="M 382.5,226.5 C 383.634,228.966 383.801,231.633 383,234.5C 382.503,231.854 382.336,229.187 382.5,226.5 Z"/></g>
<g><path style="opacity:0.399" fill="#fbd0b6" d="M 340.5,226.5 C 353.99,225.504 367.656,225.171 381.5,225.5C 381.5,231.5 381.5,237.5 381.5,243.5C 378.287,243.81 375.287,243.477 372.5,242.5C 375.167,242.5 377.833,242.5 380.5,242.5C 380.5,237.167 380.5,231.833 380.5,226.5C 367.167,226.5 353.833,226.5 340.5,226.5 Z"/></g>
<g><path style="opacity:1" fill="#f3742a" d="M 416.5,226.5 C 416.833,226.5 417.167,226.5 417.5,226.5C 418.048,228.532 419.381,229.532 421.5,229.5C 422.5,229.833 423.167,230.5 423.5,231.5C 424.927,238.615 422.594,243.949 416.5,247.5C 418.355,249.013 420.355,250.346 422.5,251.5C 422.5,255.167 422.5,258.833 422.5,262.5C 423.833,262.5 425.167,262.5 426.5,262.5C 426.5,265.167 426.5,267.833 426.5,270.5C 421.5,270.5 416.5,270.5 411.5,270.5C 411.821,265.305 411.487,260.305 410.5,255.5C 407.944,252.576 404.944,251.91 401.5,253.5C 401.5,256.5 401.5,259.5 401.5,262.5C 402.5,262.5 403.5,262.5 404.5,262.5C 404.5,265.167 404.5,267.833 404.5,270.5C 398.167,270.5 391.833,270.5 385.5,270.5C 385.5,267.833 385.5,265.167 385.5,262.5C 387.099,262.768 388.432,262.434 389.5,261.5C 388.53,252.918 388.197,244.251 388.5,235.5C 387.5,235.5 386.5,235.5 385.5,235.5C 385.5,232.5 385.5,229.5 385.5,226.5C 395.833,226.5 406.167,226.5 416.5,226.5 Z M 402.5,235.5 C 405.271,235.421 407.937,235.921 410.5,237C 411.38,238.356 411.714,239.856 411.5,241.5C 411.167,242.5 410.5,243.167 409.5,243.5C 407.167,243.5 404.833,243.5 402.5,243.5C 402.5,240.833 402.5,238.167 402.5,235.5 Z"/></g>
<g><path style="opacity:0.751" fill="#fbaa7c" d="M 464.5,226.5 C 464.833,226.5 465.167,226.5 465.5,226.5C 465.5,231.5 465.5,236.5 465.5,241.5C 462.15,241.665 458.817,241.498 455.5,241C 454.619,240.292 453.953,239.458 453.5,238.5C 457.099,239.344 460.766,239.677 464.5,239.5C 464.5,235.167 464.5,230.833 464.5,226.5 Z"/></g>
<g><path style="opacity:1" fill="#f2742a" d="M 77.5,242.5 C 71.5888,244.851 68.2555,242.851 67.5,236.5C 65.777,235.2 63.6103,234.533 61,234.5C 58.6392,234.504 56.4726,234.837 54.5,235.5C 54.5,237.833 54.5,240.167 54.5,242.5C 57.1667,242.5 59.8333,242.5 62.5,242.5C 62.5,245.833 62.5,249.167 62.5,252.5C 59.8333,252.5 57.1667,252.5 54.5,252.5C 54.5,255.833 54.5,259.167 54.5,262.5C 56.5,262.5 58.5,262.5 60.5,262.5C 60.5,265.167 60.5,267.833 60.5,270.5C 53.1667,270.5 45.8333,270.5 38.5,270.5C 38.5,267.5 38.5,264.5 38.5,261.5C 39.8333,261.5 41.1667,261.5 42.5,261.5C 42.5,252.833 42.5,244.167 42.5,235.5C 41.1667,235.5 39.8333,235.5 38.5,235.5C 38.5,232.5 38.5,229.5 38.5,226.5C 51.5,226.5 64.5,226.5 77.5,226.5C 77.5,231.833 77.5,237.167 77.5,242.5 Z"/></g>
<g><path style="opacity:1" fill="#f47a34" d="M 120.5,226.5 C 133.167,226.5 145.833,226.5 158.5,226.5C 158.5,231.833 158.5,237.167 158.5,242.5C 153.039,243.674 149.706,241.674 148.5,236.5C 147.635,235.417 146.635,235.251 145.5,236C 146.819,244.5 146.819,253 145.5,261.5C 146.568,262.434 147.901,262.768 149.5,262.5C 149.5,265.167 149.5,267.833 149.5,270.5C 142.833,270.5 136.167,270.5 129.5,270.5C 129.5,267.833 129.5,265.167 129.5,262.5C 131.099,262.768 132.432,262.434 133.5,261.5C 132.181,253 132.181,244.5 133.5,236C 132.365,235.251 131.365,235.417 130.5,236.5C 129.294,241.674 125.961,243.674 120.5,242.5C 120.5,237.167 120.5,231.833 120.5,226.5 Z"/></g>
<g><path style="opacity:1" fill="#f3762f" d="M 193.5,235.5 C 193.334,241.509 193.501,247.509 194,253.5C 194.037,255.974 194.87,257.974 196.5,259.5C 196.611,260.117 196.944,260.617 197.5,261C 200.167,261.667 202.833,261.667 205.5,261C 206.337,259.989 206.67,258.822 206.5,257.5C 206.5,250.167 206.5,242.833 206.5,235.5C 205.167,235.5 203.833,235.5 202.5,235.5C 202.5,232.5 202.5,229.5 202.5,226.5C 209.5,226.5 216.5,226.5 223.5,226.5C 223.5,229.5 223.5,232.5 223.5,235.5C 222.167,235.5 220.833,235.5 219.5,235.5C 218.507,243.65 218.174,251.983 218.5,260.5C 217.015,266.816 213.015,270.649 206.5,272C 197.14,274.102 189.307,271.602 183,264.5C 182.187,262.564 181.687,260.564 181.5,258.5C 181.5,250.5 181.5,242.5 181.5,234.5C 180.167,234.5 178.833,234.5 177.5,234.5C 177.5,231.833 177.5,229.167 177.5,226.5C 184.167,226.5 190.833,226.5 197.5,226.5C 197.5,229.167 197.5,231.833 197.5,234.5C 195.901,234.232 194.568,234.566 193.5,235.5 Z"/></g>
<g><path style="opacity:1" fill="#f27329" d="M 225.5,226.5 C 231.259,226.214 236.925,226.548 242.5,227.5C 245,230.494 247,233.827 248.5,237.5C 248.427,239.027 249.094,240.027 250.5,240.5C 251.338,240.842 251.672,241.508 251.5,242.5C 251.427,244.027 252.094,245.027 253.5,245.5C 254.338,245.842 254.672,246.508 254.5,247.5C 254.783,248.289 255.283,248.956 256,249.5C 256.815,244.648 256.648,239.981 255.5,235.5C 254.167,235.5 252.833,235.5 251.5,235.5C 251.5,232.5 251.5,229.5 251.5,226.5C 258.167,226.5 264.833,226.5 271.5,226.5C 271.5,229.5 271.5,232.5 271.5,235.5C 270.167,235.5 268.833,235.5 267.5,235.5C 266.505,246.988 266.172,258.655 266.5,270.5C 263.167,270.5 259.833,270.5 256.5,270.5C 252.139,263.149 247.806,255.816 243.5,248.5C 243.5,247.833 243.167,247.5 242.5,247.5C 242.5,247.167 242.5,246.833 242.5,246.5C 242.631,245.624 242.298,244.957 241.5,244.5C 240.192,248.315 240.192,251.981 241.5,255.5C 242.742,257.389 242.742,259.389 241.5,261.5C 242.568,262.434 243.901,262.768 245.5,262.5C 245.5,265.167 245.5,267.833 245.5,270.5C 238.833,270.5 232.167,270.5 225.5,270.5C 225.5,267.833 225.5,265.167 225.5,262.5C 227.167,262.5 228.833,262.5 230.5,262.5C 230.5,253.167 230.5,243.833 230.5,234.5C 228.833,234.5 227.167,234.5 225.5,234.5C 225.5,231.833 225.5,229.167 225.5,226.5 Z"/></g>
<g><path style="opacity:1" fill="#f27328" d="M 273.5,226.5 C 280.5,226.5 287.5,226.5 294.5,226.5C 294.5,229.5 294.5,232.5 294.5,235.5C 293.167,235.5 291.833,235.5 290.5,235.5C 290.5,244.167 290.5,252.833 290.5,261.5C 291.568,262.434 292.901,262.768 294.5,262.5C 294.5,265.167 294.5,267.833 294.5,270.5C 287.833,270.5 281.167,270.5 274.5,270.5C 274.5,267.833 274.5,265.167 274.5,262.5C 275.833,262.5 277.167,262.5 278.5,262.5C 278.827,253.318 278.493,244.318 277.5,235.5C 276.167,235.5 274.833,235.5 273.5,235.5C 273.5,232.5 273.5,229.5 273.5,226.5 Z"/></g>
<g><path style="opacity:1" fill="#f37730" d="M 296.5,226.5 C 302.833,226.5 309.167,226.5 315.5,226.5C 315.5,229.5 315.5,232.5 315.5,235.5C 314.5,235.5 313.5,235.5 312.5,235.5C 312.5,236.5 312.5,237.5 312.5,238.5C 312.41,241.152 313.076,243.485 314.5,245.5C 314.691,249.074 315.691,252.407 317.5,255.5C 319.217,254.332 319.884,252.665 319.5,250.5C 320.924,248.485 321.59,246.152 321.5,243.5C 322.924,241.485 323.59,239.152 323.5,236.5C 324.043,236.44 324.376,236.107 324.5,235.5C 323.311,234.571 321.978,234.238 320.5,234.5C 320.5,231.833 320.5,229.167 320.5,226.5C 326.5,226.5 332.5,226.5 338.5,226.5C 338.5,229.5 338.5,232.5 338.5,235.5C 337.5,235.5 336.5,235.5 335.5,235.5C 332.405,246.784 328.739,257.784 324.5,268.5C 320.486,270.334 316.153,271.001 311.5,270.5C 307.577,259.232 303.744,247.899 300,236.5C 298.989,235.663 297.822,235.33 296.5,235.5C 296.5,232.5 296.5,229.5 296.5,226.5 Z"/></g>
<g><path style="opacity:1" fill="#f27329" d="M 340.5,226.5 C 353.833,226.5 367.167,226.5 380.5,226.5C 380.5,231.833 380.5,237.167 380.5,242.5C 377.833,242.5 375.167,242.5 372.5,242.5C 371.637,240.579 370.971,238.579 370.5,236.5C 368.777,235.2 366.61,234.533 364,234.5C 361.639,234.504 359.473,234.837 357.5,235.5C 356.532,237.607 356.198,239.941 356.5,242.5C 359.5,242.5 362.5,242.5 365.5,242.5C 365.5,245.833 365.5,249.167 365.5,252.5C 362.833,252.5 360.167,252.5 357.5,252.5C 356.167,255.5 356.167,258.5 357.5,261.5C 361.833,261.5 366.167,261.5 370.5,261.5C 371.924,259.485 372.59,257.152 372.5,254.5C 372.5,254.167 372.5,253.833 372.5,253.5C 375.167,253.5 377.833,253.5 380.5,253.5C 380.5,259.167 380.5,264.833 380.5,270.5C 367.167,270.5 353.833,270.5 340.5,270.5C 340.5,267.5 340.5,264.5 340.5,261.5C 341.833,261.5 343.167,261.5 344.5,261.5C 344.5,252.833 344.5,244.167 344.5,235.5C 343.167,235.5 341.833,235.5 340.5,235.5C 340.5,232.5 340.5,229.5 340.5,226.5 Z"/></g>
<g><path style="opacity:1" fill="#fca270" d="M 417.5,226.5 C 419.404,226.738 420.738,227.738 421.5,229.5C 419.381,229.532 418.048,228.532 417.5,226.5 Z"/></g>
<g><path style="opacity:1" fill="#f27328" d="M 492.5,226.5 C 492.5,229.5 492.5,232.5 492.5,235.5C 491.167,235.5 489.833,235.5 488.5,235.5C 487.507,244.318 487.173,253.318 487.5,262.5C 488.833,262.5 490.167,262.5 491.5,262.5C 491.5,265.167 491.5,267.833 491.5,270.5C 484.833,270.5 478.167,270.5 471.5,270.5C 471.5,267.833 471.5,265.167 471.5,262.5C 473.099,262.768 474.432,262.434 475.5,261.5C 475.5,252.833 475.5,244.167 475.5,235.5C 474.167,235.5 472.833,235.5 471.5,235.5C 471.5,232.5 471.5,229.5 471.5,226.5C 478.5,226.5 485.5,226.5 492.5,226.5 Z"/></g>
<g><path style="opacity:1" fill="#f57e3a" d="M 532.5,226.5 C 532.5,226.833 532.5,227.167 532.5,227.5C 532.5,229.833 532.5,232.167 532.5,234.5C 532.5,236.833 532.5,239.167 532.5,241.5C 530.143,241.663 527.81,241.497 525.5,241C 525.833,240.667 526.167,240.333 526.5,240C 525.309,239.302 524.309,238.469 523.5,237.5C 523.5,236.5 523.5,235.5 523.5,234.5C 521.901,234.232 520.568,234.566 519.5,235.5C 520.833,244.167 520.833,252.833 519.5,261.5C 520.568,262.434 521.901,262.768 523.5,262.5C 523.5,265.167 523.5,267.833 523.5,270.5C 516.833,270.5 510.167,270.5 503.5,270.5C 503.5,267.833 503.5,265.167 503.5,262.5C 505.099,262.768 506.432,262.434 507.5,261.5C 506.181,253 506.181,244.5 507.5,236C 505.385,235.464 504.052,236.297 503.5,238.5C 502.662,238.842 502.328,239.508 502.5,240.5C 500.012,242.388 497.012,243.055 493.5,242.5C 493.193,236.907 493.527,231.407 494.5,226C 507.34,225.173 520.007,225.34 532.5,226.5 Z"/></g>
<g><path style="opacity:1" fill="#f3752c" d="M 551.5,237.5 C 553.316,239.118 554.649,241.118 555.5,243.5C 556.167,246.167 556.833,246.167 557.5,243.5C 558.906,243.027 559.573,242.027 559.5,240.5C 559.751,238.83 560.418,237.33 561.5,236C 560.906,235.536 560.239,235.369 559.5,235.5C 559.5,232.5 559.5,229.5 559.5,226.5C 565.833,226.5 572.167,226.5 578.5,226.5C 578.5,229.5 578.5,232.5 578.5,235.5C 576.61,235.297 575.11,235.963 574,237.5C 570.915,242.672 567.581,247.672 564,252.5C 562.711,255.351 562.211,258.351 562.5,261.5C 563.568,262.434 564.901,262.768 566.5,262.5C 566.5,265.167 566.5,267.833 566.5,270.5C 559.833,270.5 553.167,270.5 546.5,270.5C 546.5,267.833 546.5,265.167 546.5,262.5C 547.833,262.5 549.167,262.5 550.5,262.5C 550.81,259.287 550.477,256.287 549.5,253.5C 545.007,247.852 541.007,241.852 537.5,235.5C 536.791,234.596 535.791,234.263 534.5,234.5C 534.5,231.833 534.5,229.167 534.5,226.5C 540.833,226.5 547.167,226.5 553.5,226.5C 553.5,229.167 553.5,231.833 553.5,234.5C 552.5,234.5 551.5,234.5 550.5,234.5C 550.263,235.791 550.596,236.791 551.5,237.5 Z"/></g>
<g><path style="opacity:0.735" fill="#f79d69" d="M 54.5,235.5 C 56.4726,234.837 58.6392,234.504 61,234.5C 63.6103,234.533 65.777,235.2 67.5,236.5C 63.6002,235.57 59.6002,235.237 55.5,235.5C 55.1667,235.5 54.8333,235.5 54.5,235.5 Z"/></g>
<g><path style="opacity:0.745" fill="#f8a473" d="M 357.5,235.5 C 359.473,234.837 361.639,234.504 364,234.5C 366.61,234.533 368.777,235.2 370.5,236.5C 366.051,235.606 361.718,235.272 357.5,235.5 Z"/></g>
<g><path style="opacity:0.631" fill="#fab48c" d="M 519.5,235.5 C 520.568,234.566 521.901,234.232 523.5,234.5C 523.5,235.5 523.5,236.5 523.5,237.5C 522.533,236.194 521.199,235.527 519.5,235.5 Z"/></g>
<g><path style="opacity:1" fill="#f78a4c" d="M 117.5,233.5 C 118.434,234.568 118.768,235.901 118.5,237.5C 118.5,239.5 118.5,241.5 118.5,243.5C 117.724,248.405 115.057,251.738 110.5,253.5C 111.234,252.292 111.567,250.959 111.5,249.5C 112.5,249.5 113.5,249.5 114.5,249.5C 115.065,244.851 115.565,240.184 116,235.5C 116.333,238.833 116.667,242.167 117,245.5C 117.499,241.514 117.666,237.514 117.5,233.5 Z"/></g>
<g><path style="opacity:0.735" fill="#f69f6c" d="M 267.5,235.5 C 267.5,247.5 267.5,259.5 267.5,271.5C 263.629,271.815 259.962,271.482 256.5,270.5C 259.833,270.5 263.167,270.5 266.5,270.5C 266.172,258.655 266.505,246.988 267.5,235.5 Z"/></g>
<g><path style="opacity:1" fill="#f99e6a" d="M 401.5,235.5 C 405.006,234.502 408.672,234.502 412.5,235.5C 412.795,237.735 412.461,239.735 411.5,241.5C 411.714,239.856 411.38,238.356 410.5,237C 407.937,235.921 405.271,235.421 402.5,235.5C 402.167,235.5 401.833,235.5 401.5,235.5 Z"/></g>
<g><path style="opacity:0.635" fill="#f9b085" d="M 84.5,235.5 C 85.8333,244.167 85.8333,252.833 84.5,261.5C 84.0871,257.373 84.0871,253.04 84.5,248.5C 84.4583,244.405 83.7916,240.571 82.5,237C 83.4158,236.722 84.0825,236.222 84.5,235.5 Z"/></g>
<g><path style="opacity:0.622" fill="#f8b085" d="M 219.5,235.5 C 219.611,236.117 219.944,236.617 220.5,237C 219.848,244.932 219.181,252.765 218.5,260.5C 218.174,251.983 218.507,243.65 219.5,235.5 Z"/></g>
<g><path style="opacity:0.373" fill="#fdccb1" d="M 248.5,237.5 C 249.906,237.973 250.573,238.973 250.5,240.5C 249.094,240.027 248.427,239.027 248.5,237.5 Z"/></g>
<g><path style="opacity:0.816" fill="#fcba95" d="M 323.5,236.5 C 323.59,239.152 322.924,241.485 321.5,243.5C 321.41,240.848 322.076,238.515 323.5,236.5 Z"/></g>
<g><path style="opacity:0.122" fill="#fde9de" d="M 503.5,238.5 C 505.665,239.062 505.332,239.729 502.5,240.5C 502.328,239.508 502.662,238.842 503.5,238.5 Z"/></g>
<g><path style="opacity:0.878" fill="#fbb38a" d="M 312.5,238.5 C 313.924,240.515 314.59,242.848 314.5,245.5C 313.076,243.485 312.41,241.152 312.5,238.5 Z"/></g>
<g><path style="opacity:0.153" fill="#fdddcb" d="M 357.5,235.5 C 357.854,237.541 357.854,239.374 357.5,241C 360.482,241.498 363.482,241.665 366.5,241.5C 366.5,245.5 366.5,249.5 366.5,253.5C 363.5,253.5 360.5,253.5 357.5,253.5C 357.5,253.167 357.5,252.833 357.5,252.5C 360.167,252.5 362.833,252.5 365.5,252.5C 365.5,249.167 365.5,245.833 365.5,242.5C 362.5,242.5 359.5,242.5 356.5,242.5C 356.198,239.941 356.532,237.607 357.5,235.5 Z"/></g>
<g><path style="opacity:0.624" fill="#f8a576" d="M 523.5,237.5 C 524.309,238.469 525.309,239.302 526.5,240C 526.167,240.333 525.833,240.667 525.5,241C 527.81,241.497 530.143,241.663 532.5,241.5C 532.5,241.833 532.5,242.167 532.5,242.5C 529.753,242.813 527.086,242.48 524.5,241.5C 523.754,240.264 523.421,238.93 523.5,237.5 Z"/></g>
<g><path style="opacity:1" fill="#fda473" d="M 423.5,231.5 C 427.01,238.026 425.677,243.526 419.5,248C 421.426,248.422 422.426,249.589 422.5,251.5C 420.355,250.346 418.355,249.013 416.5,247.5C 422.594,243.949 424.927,238.615 423.5,231.5 Z"/></g>
<g><path style="opacity:0.514" fill="#fcba94" d="M 559.5,240.5 C 559.573,242.027 558.906,243.027 557.5,243.5C 557.427,241.973 558.094,240.973 559.5,240.5 Z"/></g>
<g><path style="opacity:0.046" fill="#fdf1eb" d="M 401.5,235.5 C 401.833,235.5 402.167,235.5 402.5,235.5C 402.5,238.167 402.5,240.833 402.5,243.5C 404.833,243.5 407.167,243.5 409.5,243.5C 407.052,244.473 404.385,244.806 401.5,244.5C 401.5,241.5 401.5,238.5 401.5,235.5 Z"/></g>
<g><path style="opacity:0.831" fill="#fec09d" d="M 105.5,243.5 C 105.179,245.048 104.179,245.715 102.5,245.5C 103.29,244.599 104.29,243.932 105.5,243.5 Z"/></g>
<g><path style="opacity:0.392" fill="#fdcaad" d="M 251.5,242.5 C 252.906,242.973 253.573,243.973 253.5,245.5C 252.094,245.027 251.427,244.027 251.5,242.5 Z"/></g>
<g><path style="opacity:0.706" fill="#fbba95" d="M 555.5,243.5 C 556.167,243.5 556.833,243.5 557.5,243.5C 556.833,246.167 556.167,246.167 555.5,243.5 Z"/></g>
<g><path style="opacity:0.408" fill="#fac5a6" d="M 255.5,235.5 C 256.648,239.981 256.815,244.648 256,249.5C 255.283,248.956 254.783,248.289 254.5,247.5C 255.483,243.702 255.817,239.702 255.5,235.5 Z"/></g>
<g><path style="opacity:0.752" fill="#f8a778" d="M 242.5,246.5 C 241.167,246.833 241.167,247.167 242.5,247.5C 243.167,247.5 243.5,247.833 243.5,248.5C 241.656,250.279 240.99,252.612 241.5,255.5C 240.192,251.981 240.192,248.315 241.5,244.5C 242.298,244.957 242.631,245.624 242.5,246.5 Z"/></g>
<g><path style="opacity:0.882" fill="#fbb38a" d="M 321.5,243.5 C 321.59,246.152 320.924,248.485 319.5,250.5C 319.41,247.848 320.076,245.515 321.5,243.5 Z"/></g>
<g><path style="opacity:0.515" fill="#f9be9b" d="M 357.5,252.5 C 357.5,252.833 357.5,253.167 357.5,253.5C 357.792,255.957 357.792,258.624 357.5,261.5C 356.167,258.5 356.167,255.5 357.5,252.5 Z"/></g>
<g><path style="opacity:0.278" fill="#fcd1b9" d="M 54.5,235.5 C 54.8333,235.5 55.1667,235.5 55.5,235.5C 55.5,237.5 55.5,239.5 55.5,241.5C 58.1667,241.5 60.8333,241.5 63.5,241.5C 63.5,245.5 63.5,249.5 63.5,253.5C 60.8333,253.5 58.1667,253.5 55.5,253.5C 55.5,256.167 55.5,258.833 55.5,261.5C 57.5,261.5 59.5,261.5 61.5,261.5C 61.5,264.833 61.5,268.167 61.5,271.5C 53.5,271.5 45.5,271.5 37.5,271.5C 37.1872,267.958 37.5206,264.625 38.5,261.5C 38.5,264.5 38.5,267.5 38.5,270.5C 45.8333,270.5 53.1667,270.5 60.5,270.5C 60.5,267.833 60.5,265.167 60.5,262.5C 58.5,262.5 56.5,262.5 54.5,262.5C 54.5,259.167 54.5,255.833 54.5,252.5C 57.1667,252.5 59.8333,252.5 62.5,252.5C 62.5,249.167 62.5,245.833 62.5,242.5C 59.8333,242.5 57.1667,242.5 54.5,242.5C 54.5,240.167 54.5,237.833 54.5,235.5 Z"/></g>
<g><path style="opacity:0.012" fill="#fefbf9" d="M 403.5,253.5 C 404.833,254.167 404.833,254.167 403.5,253.5 Z"/></g>
<g><path style="opacity:0.004" fill="#fefdfa" d="M 405.5,253.5 C 406.833,254.167 406.833,254.167 405.5,253.5 Z"/></g>
<g><path style="opacity:0.165" fill="#fdede5" d="M 106.5,254.5 C 103.713,255.477 100.713,255.81 97.5,255.5C 97.5,257.5 97.5,259.5 97.5,261.5C 97.1667,261.5 96.8333,261.5 96.5,261.5C 96.5,259.167 96.5,256.833 96.5,254.5C 99.8333,254.5 103.167,254.5 106.5,254.5 Z"/></g>
<g><path style="opacity:0.647" fill="#fcba95" d="M 314.5,245.5 C 315.74,248.024 316.907,250.691 318,253.5C 318.232,252.263 318.732,251.263 319.5,250.5C 319.884,252.665 319.217,254.332 317.5,255.5C 315.691,252.407 314.691,249.074 314.5,245.5 Z"/></g>
<g><path style="opacity:0.929" fill="#fbac80" d="M 372.5,254.5 C 372.59,257.152 371.924,259.485 370.5,261.5C 370.41,258.848 371.076,256.515 372.5,254.5 Z"/></g>
<g><path style="opacity:1" fill="#fb9f6c" d="M 206.5,257.5 C 206.67,258.822 206.337,259.989 205.5,261C 202.833,261.667 200.167,261.667 197.5,261C 196.944,260.617 196.611,260.117 196.5,259.5C 200.274,261.057 203.608,260.39 206.5,257.5 Z"/></g>
<g><path style="opacity:1" fill="#fbaa7d" d="M 454.5,256.5 C 455.461,258.265 455.795,260.265 455.5,262.5C 452.615,262.806 449.948,262.473 447.5,261.5C 449.527,261.662 451.527,261.495 453.5,261C 454.38,259.644 454.714,258.144 454.5,256.5 Z"/></g>
<g><path style="opacity:0.004" fill="#fefbf7" d="M 382.5,262.5 C 383.573,263.251 383.74,264.251 383,265.5C 382.517,264.552 382.351,263.552 382.5,262.5 Z"/></g>
<g><path style="opacity:0.004" fill="#fefbf8" d="M 468.5,262.5 C 469.833,263.167 469.833,263.167 468.5,262.5 Z"/></g>
<g><path style="opacity:0.004" fill="#fefbf6" d="M 382.5,269.5 C 383.833,270.167 383.833,270.167 382.5,269.5 Z"/></g>
<g><path style="opacity:0.504" fill="#f9b791" d="M 84.5,261.5 C 83.4324,262.434 82.099,262.768 80.5,262.5C 80.5,265.167 80.5,267.833 80.5,270.5C 87.1667,270.5 93.8333,270.5 100.5,270.5C 100.5,267.833 100.5,265.167 100.5,262.5C 98.901,262.768 97.5676,262.434 96.5,261.5C 96.8333,261.5 97.1667,261.5 97.5,261.5C 98.8333,261.5 100.167,261.5 101.5,261.5C 101.5,264.833 101.5,268.167 101.5,271.5C 94.1667,271.5 86.8333,271.5 79.5,271.5C 79.5,268.167 79.5,264.833 79.5,261.5C 81.1667,261.5 82.8333,261.5 84.5,261.5 Z"/></g>
<g><path style="opacity:0.505" fill="#f9bc99" d="M 133.5,261.5 C 132.432,262.434 131.099,262.768 129.5,262.5C 129.5,265.167 129.5,267.833 129.5,270.5C 136.167,270.5 142.833,270.5 149.5,270.5C 149.5,267.833 149.5,265.167 149.5,262.5C 147.901,262.768 146.568,262.434 145.5,261.5C 147.167,261.5 148.833,261.5 150.5,261.5C 150.5,264.833 150.5,268.167 150.5,271.5C 143.167,271.5 135.833,271.5 128.5,271.5C 128.5,268.167 128.5,264.833 128.5,261.5C 130.167,261.5 131.833,261.5 133.5,261.5 Z"/></g>
<g><path style="opacity:0.511" fill="#f9ba95" d="M 225.5,235.5 C 225.5,235.167 225.5,234.833 225.5,234.5C 227.167,234.5 228.833,234.5 230.5,234.5C 230.5,243.833 230.5,253.167 230.5,262.5C 228.833,262.5 227.167,262.5 225.5,262.5C 225.5,265.167 225.5,267.833 225.5,270.5C 232.167,270.5 238.833,270.5 245.5,270.5C 245.5,267.833 245.5,265.167 245.5,262.5C 243.901,262.768 242.568,262.434 241.5,261.5C 243.167,261.5 244.833,261.5 246.5,261.5C 246.5,264.833 246.5,268.167 246.5,271.5C 239.167,271.5 231.833,271.5 224.5,271.5C 224.5,268.167 224.5,264.833 224.5,261.5C 226.167,261.5 227.833,261.5 229.5,261.5C 229.666,252.827 229.5,244.16 229,235.5C 228.014,236.171 226.847,236.171 225.5,235.5 Z"/></g>
<g><path style="opacity:0.513" fill="#fbc3a3" d="M 277.5,235.5 C 278.493,244.318 278.827,253.318 278.5,262.5C 277.167,262.5 275.833,262.5 274.5,262.5C 274.5,265.167 274.5,267.833 274.5,270.5C 281.167,270.5 287.833,270.5 294.5,270.5C 294.5,267.833 294.5,265.167 294.5,262.5C 292.901,262.768 291.568,262.434 290.5,261.5C 292.167,261.5 293.833,261.5 295.5,261.5C 295.5,264.833 295.5,268.167 295.5,271.5C 288.167,271.5 280.833,271.5 273.5,271.5C 273.5,268.167 273.5,264.833 273.5,261.5C 274.833,261.5 276.167,261.5 277.5,261.5C 277.5,252.833 277.5,244.167 277.5,235.5 Z"/></g>
<g><path style="opacity:0.512" fill="#f9bf9d" d="M 324.5,268.5 C 324.5,269.5 324.5,270.5 324.5,271.5C 319.968,271.818 315.634,271.485 311.5,270.5C 316.153,271.001 320.486,270.334 324.5,268.5 Z"/></g>
<g><path style="opacity:0.508" fill="#fac5a5" d="M 372.5,253.5 C 375.287,252.523 378.287,252.19 381.5,252.5C 381.5,258.833 381.5,265.167 381.5,271.5C 367.5,271.5 353.5,271.5 339.5,271.5C 339.187,267.958 339.521,264.625 340.5,261.5C 340.5,264.5 340.5,267.5 340.5,270.5C 353.833,270.5 367.167,270.5 380.5,270.5C 380.5,264.833 380.5,259.167 380.5,253.5C 377.833,253.5 375.167,253.5 372.5,253.5 Z"/></g>
<g><path style="opacity:0.512" fill="#fac2a1" d="M 401.5,253.5 C 402.473,255.948 402.806,258.615 402.5,261.5C 403.5,261.5 404.5,261.5 405.5,261.5C 405.5,264.833 405.5,268.167 405.5,271.5C 398.5,271.5 391.5,271.5 384.5,271.5C 384.5,268.167 384.5,264.833 384.5,261.5C 386.167,261.5 387.833,261.5 389.5,261.5C 388.432,262.434 387.099,262.768 385.5,262.5C 385.5,265.167 385.5,267.833 385.5,270.5C 391.833,270.5 398.167,270.5 404.5,270.5C 404.5,267.833 404.5,265.167 404.5,262.5C 403.5,262.5 402.5,262.5 401.5,262.5C 401.5,259.5 401.5,256.5 401.5,253.5 Z"/></g>
<g><path style="opacity:0.511" fill="#f9bf9d" d="M 422.5,251.5 C 423.479,254.625 423.813,257.958 423.5,261.5C 424.833,261.5 426.167,261.5 427.5,261.5C 427.5,264.833 427.5,268.167 427.5,271.5C 421.833,271.5 416.167,271.5 410.5,271.5C 410.5,266.167 410.5,260.833 410.5,255.5C 411.487,260.305 411.821,265.305 411.5,270.5C 416.5,270.5 421.5,270.5 426.5,270.5C 426.5,267.833 426.5,265.167 426.5,262.5C 425.167,262.5 423.833,262.5 422.5,262.5C 422.5,258.833 422.5,255.167 422.5,251.5 Z"/></g>
<g><path style="opacity:0.511" fill="#f9c2a2" d="M 430.5,255.5 C 430.5,260.5 430.5,265.5 430.5,270.5C 433.5,270.5 436.5,270.5 439.5,270.5C 439.343,269.127 439.51,267.793 440,266.5C 440.717,267.044 441.217,267.711 441.5,268.5C 440.167,268.833 440.167,269.167 441.5,269.5C 441.389,270.117 441.056,270.617 440.5,271C 436.848,271.499 433.182,271.665 429.5,271.5C 429.179,265.974 429.512,260.64 430.5,255.5 Z"/></g>
<g><path style="opacity:0.508" fill="#fbc3a4" d="M 488.5,235.5 C 488.5,244.167 488.5,252.833 488.5,261.5C 489.833,261.5 491.167,261.5 492.5,261.5C 492.5,264.833 492.5,268.167 492.5,271.5C 485.167,271.5 477.833,271.5 470.5,271.5C 470.5,268.167 470.5,264.833 470.5,261.5C 472.167,261.5 473.833,261.5 475.5,261.5C 474.432,262.434 473.099,262.768 471.5,262.5C 471.5,265.167 471.5,267.833 471.5,270.5C 478.167,270.5 484.833,270.5 491.5,270.5C 491.5,267.833 491.5,265.167 491.5,262.5C 490.167,262.5 488.833,262.5 487.5,262.5C 487.173,253.318 487.507,244.318 488.5,235.5 Z"/></g>
<g><path style="opacity:0.505" fill="#f8ba95" d="M 507.5,261.5 C 506.432,262.434 505.099,262.768 503.5,262.5C 503.5,265.167 503.5,267.833 503.5,270.5C 510.167,270.5 516.833,270.5 523.5,270.5C 523.5,267.833 523.5,265.167 523.5,262.5C 521.901,262.768 520.568,262.434 519.5,261.5C 521.167,261.5 522.833,261.5 524.5,261.5C 524.5,264.833 524.5,268.167 524.5,271.5C 517.167,271.5 509.833,271.5 502.5,271.5C 502.5,268.167 502.5,264.833 502.5,261.5C 504.167,261.5 505.833,261.5 507.5,261.5 Z"/></g>
<g><path style="opacity:0.506" fill="#f9ba96" d="M 549.5,253.5 C 550.477,256.287 550.81,259.287 550.5,262.5C 549.167,262.5 547.833,262.5 546.5,262.5C 546.5,265.167 546.5,267.833 546.5,270.5C 553.167,270.5 559.833,270.5 566.5,270.5C 566.5,267.833 566.5,265.167 566.5,262.5C 564.901,262.768 563.568,262.434 562.5,261.5C 564.167,261.5 565.833,261.5 567.5,261.5C 567.5,264.833 567.5,268.167 567.5,271.5C 560.167,271.5 552.833,271.5 545.5,271.5C 545.5,268.167 545.5,264.833 545.5,261.5C 546.833,261.5 548.167,261.5 549.5,261.5C 549.5,258.833 549.5,256.167 549.5,253.5 Z"/></g>
<g><path style="opacity:0.345" fill="#fdd0b7" d="M 444.5,270.5 C 448.798,271.2 453.131,271.533 457.5,271.5C 456.036,272.16 454.369,272.493 452.5,272.5C 449.514,272.618 446.848,271.952 444.5,270.5 Z"/></g>
<g><path style="opacity:0.007" fill="#fefcfa" d="M 51.5,273.5 C 53.9664,272.366 56.633,272.199 59.5,273C 56.854,273.497 54.1873,273.664 51.5,273.5 Z"/></g>
<g><path style="opacity:0.006" fill="#fefcfa" d="M 89.5,273.5 C 92.9758,272.357 96.6425,272.19 100.5,273C 96.8484,273.499 93.1817,273.665 89.5,273.5 Z"/></g>
<g><path style="opacity:0.004" fill="#fefcfa" d="M 145.5,273.5 C 146.601,272.402 147.934,272.235 149.5,273C 148.207,273.49 146.873,273.657 145.5,273.5 Z"/></g>
<g><path style="opacity:0.004" fill="#fefcfa" d="M 291.5,273.5 C 291.897,272.475 292.563,272.308 293.5,273C 292.906,273.464 292.239,273.631 291.5,273.5 Z"/></g>
<g><path style="opacity:0.004" fill="#fefcfa" d="M 360.5,273.5 C 360.897,272.475 361.563,272.308 362.5,273C 361.906,273.464 361.239,273.631 360.5,273.5 Z"/></g>
<g><path style="opacity:0.004" fill="#fefcfa" d="M 387.5,272.5 C 388.833,273.167 388.833,273.167 387.5,272.5 Z"/></g>
<g><path style="opacity:0.004" fill="#fefcfa" d="M 413.5,272.5 C 414.833,273.167 414.833,273.167 413.5,272.5 Z"/></g>
<g><path style="opacity:0.004" fill="#fefcfa" d="M 418.5,273.5 C 418.897,272.475 419.563,272.308 420.5,273C 419.906,273.464 419.239,273.631 418.5,273.5 Z"/></g>
<g><path style="opacity:0.004" fill="#fefcfa" d="M 473.5,272.5 C 474.833,273.167 474.833,273.167 473.5,272.5 Z"/></g>
<g><path style="opacity:0.004" fill="#fefcfa" d="M 488.5,272.5 C 489.833,273.167 489.833,273.167 488.5,272.5 Z"/></g>
<g><path style="opacity:0.004" fill="#fefcfa" d="M 505.5,272.5 C 506.833,273.167 506.833,273.167 505.5,272.5 Z"/></g>
<g><path style="opacity:0.004" fill="#fefcfa" d="M 519.5,273.5 C 520.251,272.427 521.251,272.26 522.5,273C 521.552,273.483 520.552,273.649 519.5,273.5 Z"/></g>
<g><path style="opacity:0.004" fill="#fefcfa" d="M 548.5,272.5 C 549.833,273.167 549.833,273.167 548.5,272.5 Z"/></g>
<g><path style="opacity:0.004" fill="#fefcfa" d="M 562.5,273.5 C 563.251,272.427 564.251,272.26 565.5,273C 564.552,273.483 563.552,273.649 562.5,273.5 Z"/></g>
</svg>
